<?xml version="1.0" encoding="utf-8"?>
<!-- Generator: Adobe Illustrator 24.1.2, SVG Export Plug-In . SVG Version: 6.00 Build 0)  -->
<svg version="1.1" id="Layer_1" xmlns="http://www.w3.org/2000/svg" xmlns:xlink="http://www.w3.org/1999/xlink" x="0px" y="0px"
	 viewBox="0 0 239.8 55.7" style="enable-background:new 0 0 239.8 55.7;" xml:space="preserve">
<style type="text/css">
	.st0{fill:#9D2235;}
</style>
<g>
	<g>
		<path class="st0" d="M51.5,16.2"/>
		<path class="st0" d="M66.2,12.8C66.2,12.7,66.2,12.7,66.2,12.8c-0.1-0.2-0.1-0.3-0.2-0.3c0,0,0,0,0,0c0,0,0,0,0,0h0
			c-0.4-0.4-1.3-1.3-1.4-1.4c-0.3-0.3-0.4-0.7-0.5-1.1c-0.1-0.4-0.2-0.8-0.5-1.2c-1.1-1.5-3.2-2.5-3.4-2.6L58.5,0l-0.1,0
			c0,0,0.3,2.2-1.3,3.2c-1,0.7-1.6,1.4-1.6,2.8c-0.4,0.1-3.6,1-6.1,3.8c-0.2-0.1-1.7-0.6-3.6-0.2c-1.3,0.3-2.5,1-4,1.9
			c-2.5,1.5-5.8,3.5-12.3,5.4c-2,0.6-3.9,1-5.6,1.3c-3.6,0.7-6.4,1.3-8.1,3.1c-0.3-0.1-2.3-0.6-3.3,1.3c-0.2,0.4-0.5,1-0.7,1.5
			c-0.8,1.8-1.6,3.7-3.4,3.7c-0.9,0-1.8,0.6-1.8,1.8c0,0.5,0.2,0.9,0.5,1.2c0.3,0.3,0.8,0.6,1.3,0.6c0,0,0.1,0,0.1,0c0,0,0,0,0.1,0
			c0,0,0,0,0,0c2.6,0.2,4.6-1.9,5-2.9c-0.1,0.9-0.7,4.4-5.3,4.2c0,0,0,0,0,0c0,0,0,0,0,0c0,0,0,0,0,0c-0.6,2.1-1.9,4.8-4.5,6.9
			c-0.1,0.1-0.2,0.2-0.3,0.2c-0.4,0.3-0.7,0.6-0.9,1.3l-2.2,7.8c0,0-0.3,0.8,0.2,1.4c0.3,0.4,0.7,0.6,1.4,0.6h3.1l0,0
			c0.3-0.6,0.3-1.2,0-1.6c-0.3-0.5-1-0.7-1.9-0.7C3,48,3.5,45.6,5.1,44c0.8-0.8,2.2-1.6,3.8-2.5c0.2-0.1,0.5-0.3,0.7-0.4l0.3,1.1
			l0.1,0c0,0,4.7-2.4,7.5-6.9c0.1,0.2,0.1,0.3,0.2,0.5c1.8,4.2-0.2,7.2-0.6,7.7c-0.5,0.7-0.1,1.2-0.1,1.2l5.2,5.4
			c0,0,0.7,0.8,1.3,0.8h3.1l0,0c0.3-0.6,0.3-1.2,0-1.6c-0.3-0.5-1-0.7-1.9-0.7c-0.1-0.1-1.2-0.7-2.4-2.7c-0.7-1.2,0-2,1.1-3.3
			c0.6-0.6,1.2-1.4,1.8-2.4l0.9,0.7l0-0.1c0,0,2.1-3.8,0.9-9c1.4-1.2,3.7-1.4,6.5-1.7c1.3-0.1,2.7-0.3,4.1-0.6
			c0.5,2.4,1.9,9.2,2.6,12.7c0.1,0.6,0.6,1.4,1.4,1.7L36,44.3c-1.5,0.1-2.3,0.2-2.5,0.9c-0.2,1-0.5,1.2-0.8,1.5
			c-0.3,0.3-0.6,0.5-0.7,1.5c-0.5,0.2-0.9,0.3-2,0.4c-0.7,0.1-1.2,0.5-1.5,1.1c-0.3,0.5-0.3,1-0.3,1l0,0.1h36.6l0-0.1
			c0,0-0.1-1.2-1.3-1.4c-1.4-0.2-1.9-0.5-2-0.6c-0.2-0.5-0.2-0.9-0.3-1.6l0-0.1c0-0.3-0.1-0.7-0.3-0.9c-0.2-0.2-0.6-0.3-0.9-0.3
			c-0.1,0-0.1,0-0.2,0c-0.5-0.1-0.9-0.2-1.1-0.3c-0.1-0.2-0.1-0.4-0.2-0.6c-0.7-1.8-0.9-2.6-3.3-2.4l-1.4,0.1
			c0.2-0.6,0.1-1.1-0.2-1.5c-0.4-0.5-1-0.7-2-0.6c-1.9-6.5-0.4-11.9,0.4-14.5c0.1-0.2,0.1-0.4,0.1-0.5l0.8,0.8l0-0.1
			c2.1-3.3,2.2-6.5,2.2-7.4c0.8,1.2,2.4,1,2.4,1l0.1,0l-0.2-1.5c0.8,1.1,2.3,0.9,2.3,0.9l0.1,0L59.6,18c-0.1-0.9,0.1-1.6,0.6-1.9
			c0.5-0.3,1.3-0.2,2,0.3c1,0.7,1.9,0.1,2.1,0c0.6-0.5,0.6-1.3,0.6-1.5c0.8-0.6,1.2-1.4,1.3-1.8C66.3,13,66.3,12.9,66.2,12.8z
			 M57.2,16.5c-1-0.5-1.3-1.6-1.3-1.6c-0.6,0.7-0.8,1.7-0.8,1.7c-1.3-1.3-1.1-3.8,0.3-4.9c2.4-1.8,5.8-0.4,6.9,2.7
			C59.3,12.3,57.1,14.4,57.2,16.5z M61.6,10.5c-0.6-0.6-0.3-1.2-0.3-1.2c0.5,0.5,0.9,0.3,1.3,0.7c0.7,0.6,0.4,1.3,0.4,1.3
			C62.5,10.7,62.1,11,61.6,10.5z M45.1,43.5c0.2-0.6,0.1-1.1-0.2-1.5c-0.4-0.5-1-0.7-2-0.6c-0.2-2.2,0.2-7.1,1.2-11l4.7,11l0,0
			c0.2,0.6,0.6,1.4,1.4,1.6L45.1,43.5z M21.3,31.9c0,0-1.1,0.8-1.8,2.2c0,0-0.1-0.5-0.2-1.2c0,0,0-0.1,0-0.1c0,0,0-0.1,0-0.1
			c0-0.3,0-0.6,0-1c0,0,0,0,0-0.1c0,0,0,0,0-0.1c0.2-2.5,1.5-6,6.8-7.3c0,0-1.7,1.9-1.2,6.4c0.4,3.7,0.7,8-3.1,9.9
			C21.8,40.4,23.7,36.9,21.3,31.9z M51.5,22.5l-1,2.2C50.5,25,49.1,28,49,32.7c-1.3-2.8-1.5-4.9-1.2-6.7c0,0,0,0,0,0
			c-0.9,0.4-1.9,1.7-1.9,1.7c-0.1-1.1,0-3.1,2.5-5.6c3-3.1,3.2-5.9,3.2-5.9S53.1,18.7,51.5,22.5z M57,46.7c0.6,0.2,1.9,0,1.8,1
			c-0.1,1,0.7,1.3,0.7,1.3H48.6h-1.7c0,0,0.2-0.4,1.2-0.8c1.6-0.5,1.6-1.6,1.6-1.6c-2.6-0.5-7.4-0.2-7.4-0.2s0.2-0.7,1.5-0.8
			c0,0,10.7-1,11-1c0.2,0,0.8-0.1,1,0.4C56.3,45.8,56.4,46.4,57,46.7z"/>
	</g>
	<g>
		<g>
			<g>
				<path class="st0" d="M71.7,18.8c0-5.4,4-9.2,8.9-9.2c1.8,0,3.3,0.4,4.4,1l1.1-1.1h0.2v5.9h-0.3c-1.3-3.4-3.1-5.3-5.7-5.3
					c-2.9,0-5.4,2.6-5.4,8.5c0,5.7,3.1,8,6,8c2.8,0,4.8-1.8,5.8-4.1l0.4,0.2c-1.1,2.4-3.2,4.8-7.1,4.8
					C75.1,27.5,71.7,24.1,71.7,18.8z"/>
				<path class="st0" d="M89.4,24.5c0-1,0.4-1.9,1.5-2.5c1.8-1,4.7-1.1,5.2-1.4v-1.8c0-1.8-0.5-2.7-2-2.7c-0.8,0-1.6,0.3-2,0.7
					c0.4,0.4,0.7,0.8,0.7,1.3c0,0.9-0.5,1.4-1.5,1.4c-0.9,0-1.4-0.6-1.4-1.4c0-1.4,1.8-2.5,4.5-2.5s4.2,1.1,4.2,3.6V25
					c0,1.2,0.4,1.7,1.9,1.1l0.1,0.2c-0.9,0.5-1.5,0.8-2.3,0.8c-1.4,0-1.9-0.6-2-1.9h-0.1c-0.9,1.1-2.1,1.9-3.6,1.9
					C90.3,27.2,89.4,25.9,89.4,24.5z M96.1,24.7v-3.6c-3.3,0.6-4,1.3-4,3c0,1.2,0.6,2,1.8,2C94.8,26.1,95.6,25.4,96.1,24.7z"/>
				<path class="st0" d="M101.2,26.8c1.4,0,1.8-0.2,1.8-0.9V11.2c0-0.8-0.2-1.2-2-1.2V9.7l4.5-0.1v16.3c0,0.7,0.3,0.9,1.7,0.9v0.3
					h-6.1V26.8z"/>
				<path class="st0" d="M108.7,26.8c1.4,0,1.8-0.2,1.8-0.9v-8.4c0-0.7-0.4-1.2-1.8-1.2v-0.3l4.4-0.2v10.1c0,0.7,0.3,0.9,1.8,0.9
					v0.3h-6.1V26.8z M110.1,12c0-1,0.6-1.7,1.6-1.7c1,0,1.6,0.6,1.6,1.6s-0.6,1.7-1.6,1.7C110.7,13.6,110.1,13,110.1,12z"/>
				<path class="st0" d="M116.3,26.8c1.4,0,1.7-0.2,1.7-0.9v-9.2h-2.1v-0.3l2.1-0.5v-0.9c0-2.1,0.5-3.4,1.4-4.3
					c0.8-0.8,1.9-1.2,3.1-1.2c2.1,0,3.2,0.9,3.2,2c0,0.9-0.5,1.5-1.4,1.5c-0.8,0-1.5-0.4-1.5-1.6c0-0.3,0.2-0.9,0.4-1.1
					c-0.2-0.2-0.5-0.3-0.9-0.3c-0.4,0-0.7,0.1-1,0.4c-0.4,0.4-0.7,1.3-0.7,3.2v2.5h3.1v0.8h-3.1v9.2c0,0.7,0.5,0.9,2.3,0.9v0.3h-6.6
					V26.8z"/>
				<path class="st0" d="M124.6,21.5c0-3.5,2.6-5.9,5.7-5.9c3.2,0,5.7,2.3,5.7,5.8c0,3.5-2.6,5.9-5.7,5.9
					C127.1,27.3,124.6,25,124.6,21.5z M133.2,21.4c0-3.8-1.1-5.4-3-5.4c-1.8,0-2.8,1.5-2.8,5.4s1.1,5.4,3,5.4
					C132.3,26.8,133.2,25.2,133.2,21.4z"/>
				<path class="st0" d="M137.6,26.8c1.4,0,1.7-0.2,1.7-0.9v-8.4c0-0.7-0.3-1.2-1.7-1.2v-0.3l4.3-0.2v2.5c0.9-1.6,2.1-2.6,3.3-2.6
					c1.3,0,2,0.8,2,1.8c0,0.9-0.6,1.6-1.5,1.6c-0.9,0-1.5-0.6-1.5-1.5c0-0.2,0.1-0.6,0.1-0.8c-1,0.1-1.6,0.8-2.3,2v7.1
					c0,0.7,0.5,0.9,2.1,0.9v0.3h-6.4V26.8z"/>
				<path class="st0" d="M148.1,26.8c1.4,0,1.7-0.2,1.7-0.9v-8.4c0-0.7-0.3-1.2-1.7-1.2v-0.3l4.3-0.2v2.6c1.1-1.7,2.6-2.7,4.2-2.7
					c1.9,0,3,1.2,3,3.4v6.7c0,0.7,0.3,0.9,1.7,0.9v0.3h-5.8v-0.3c1.1,0,1.5-0.2,1.5-0.9v-6.3c0-1.8-0.5-2.6-2-2.6
					c-1.1,0-2,0.8-2.6,2.1v6.9c0,0.7,0.3,0.9,1.4,0.9v0.3h-5.7V26.8z"/>
				<path class="st0" d="M162.3,26.8c1.4,0,1.8-0.2,1.8-0.9v-8.4c0-0.7-0.4-1.2-1.8-1.2v-0.3l4.4-0.2v10.1c0,0.7,0.3,0.9,1.8,0.9
					v0.3h-6.1V26.8z M163.7,12c0-1,0.6-1.7,1.6-1.7c1,0,1.6,0.6,1.6,1.6s-0.6,1.7-1.6,1.7C164.3,13.6,163.7,13,163.7,12z"/>
				<path class="st0" d="M170.1,24.5c0-1,0.4-1.9,1.5-2.5c1.8-1,4.7-1.1,5.2-1.4v-1.8c0-1.8-0.5-2.7-2-2.7c-0.8,0-1.6,0.3-2,0.7
					c0.4,0.4,0.7,0.8,0.7,1.3c0,0.9-0.5,1.4-1.5,1.4c-0.9,0-1.4-0.6-1.4-1.4c0-1.4,1.8-2.5,4.5-2.5c2.8,0,4.2,1.1,4.2,3.6V25
					c0,1.2,0.4,1.7,1.9,1.1l0.1,0.2c-0.9,0.5-1.5,0.8-2.3,0.8c-1.4,0-1.9-0.6-2-1.9h-0.1c-0.9,1.1-2.1,1.9-3.6,1.9
					C171.1,27.2,170.1,25.9,170.1,24.5z M176.8,24.7v-3.6c-3.3,0.6-4,1.3-4,3c0,1.2,0.6,2,1.8,2C175.5,26.1,176.3,25.4,176.8,24.7z"
					/>
				<path class="st0" d="M184.9,21.4h0.3c1.5,3.3,3.2,5.5,5.8,5.5c2.4,0,3.6-1.6,3.6-3.2c0-2.2-1.5-3-4.5-4.1c-2.4-0.9-5-1.6-5-4.8
					c0-3.2,2.5-5.2,5.8-5.2c1.4,0,2.8,0.4,3.7,0.8l0.9-1h0.3V15h-0.3c-1.3-3.2-2.9-4.8-4.9-4.8c-1.7,0-3.2,1.1-3.2,3
					c0,2.1,1.6,2.9,4.4,3.8c2.3,0.8,4.8,1.6,4.8,4.8c0,2.7-1.6,5.6-5.8,5.6c-1.4,0-3-0.5-4.1-1.1l-1.5,1.2h-0.3V21.4z"/>
				<path class="st0" d="M200.4,24.1v-7.4h-2.3v-0.3l2.3-0.5v-3.1l2.6-0.9v4.1h3.5v0.8h-3.5v7.6c0,1.5,0.4,2,1.4,2
					c0.7,0,1.4-0.5,2.1-1.6l0.3,0.2c-0.8,1.6-1.9,2.4-3.4,2.4C201.4,27.3,200.4,26.3,200.4,24.1z"/>
				<path class="st0" d="M207.9,24.5c0-1,0.4-1.9,1.5-2.5c1.8-1,4.7-1.1,5.2-1.4v-1.8c0-1.8-0.5-2.7-2-2.7c-0.8,0-1.6,0.3-2,0.7
					c0.4,0.4,0.7,0.8,0.7,1.3c0,0.9-0.5,1.4-1.5,1.4c-0.9,0-1.4-0.6-1.4-1.4c0-1.4,1.8-2.5,4.5-2.5c2.8,0,4.2,1.1,4.2,3.6V25
					c0,1.2,0.4,1.7,1.9,1.1l0.1,0.2c-0.9,0.5-1.5,0.8-2.3,0.8c-1.4,0-1.9-0.6-2-1.9h-0.1c-0.9,1.1-2.1,1.9-3.6,1.9
					C208.8,27.2,207.9,25.9,207.9,24.5z M214.6,24.7v-3.6c-3.3,0.6-4,1.3-4,3c0,1.2,0.6,2,1.8,2C213.3,26.1,214.1,25.4,214.6,24.7z"
					/>
				<path class="st0" d="M221.5,24.1v-7.4h-2.3v-0.3l2.3-0.5v-3.1l2.6-0.9v4.1h3.5v0.8h-3.5v7.6c0,1.5,0.4,2,1.4,2
					c0.7,0,1.4-0.5,2.1-1.6l0.3,0.2c-0.8,1.6-1.9,2.4-3.4,2.4C222.6,27.3,221.5,26.3,221.5,24.1z"/>
				<path class="st0" d="M228.9,21.6c0-3.5,2.5-6,5.5-6c3.3,0,5,2.3,4.8,5.2h-7.5v0.6v0c0,2.8,1.3,4.9,3.8,4.9
					c1.5,0,2.4-0.8,3.4-2.1l0.3,0.2c-1,1.6-2.4,2.9-4.8,2.9C231.1,27.3,228.9,24.9,228.9,21.6z M231.7,20.4h4.7
					c0.2-2.7-0.4-4.3-2.2-4.3C232.7,16.1,231.8,17.6,231.7,20.4z"/>
				<path class="st0" d="M73.9,45.9V35.7c0-1-0.6-1.5-2.7-1.6v-0.3h8v0.3c-2.1,0.1-2.5,0.6-2.5,1.6v9.9c0,3.7,2.2,4.8,5,4.8
					c1.2,0,2.4-0.4,3.1-1.1c0.9-0.9,1.4-2.1,1.4-4v-7.5c0-2.4-0.8-3.4-3.3-3.8v-0.3h6.8v0.3c-2.3,0.4-2.9,1.4-2.9,3.8v7.7
					c0,3.4-1.9,5.7-6.3,5.7C76.3,51.2,73.9,49.4,73.9,45.9z"/>
				<path class="st0" d="M88.4,50.5c1.4,0,1.7-0.2,1.7-0.9v-8.4c0-0.7-0.3-1.2-1.7-1.2v-0.3l4.3-0.2v2.6c1.1-1.7,2.6-2.7,4.2-2.7
					c1.9,0,3,1.2,3,3.4v6.7c0,0.7,0.3,0.9,1.7,0.9v0.3h-5.8v-0.3c1.1,0,1.5-0.2,1.5-0.9v-6.3c0-1.8-0.5-2.6-2-2.6
					c-1.1,0-2,0.8-2.6,2.1v6.9c0,0.7,0.3,0.9,1.4,0.9v0.3h-5.7V50.5z"/>
				<path class="st0" d="M101.9,50.5c1.4,0,1.8-0.2,1.8-0.9v-8.4c0-0.7-0.4-1.2-1.8-1.2v-0.3l4.4-0.2v10.1c0,0.7,0.3,0.9,1.8,0.9
					v0.3h-6.1V50.5z M103.3,35.8c0-1,0.6-1.7,1.6-1.7c1,0,1.6,0.6,1.6,1.6s-0.6,1.7-1.6,1.7C103.9,37.4,103.3,36.8,103.3,35.8z"/>
				<path class="st0" d="M109.6,41.7c-0.5-1.3-1-1.7-2.1-1.8v-0.3h6v0.3c-1.1,0.1-1.4,0.4-1.4,0.9c0,0.2,0,0.4,0.1,0.7l2.6,6.9h0.1
					l2.2-5.6c0.2-0.6,0.4-1.2,0.4-1.5c0-0.8-0.6-1.1-1.8-1.3v-0.3h4.5v0.3c-0.9,0.1-1.6,0.8-2.2,2.1l-3.8,9h-0.9L109.6,41.7z"/>
				<path class="st0" d="M119.2,45.3c0-3.5,2.5-6,5.5-6c3.3,0,5,2.3,4.8,5.2H122v0.6v0c0,2.8,1.3,4.9,3.8,4.9c1.5,0,2.4-0.8,3.4-2.1
					l0.3,0.2c-1,1.6-2.4,2.9-4.8,2.9C121.5,51,119.2,48.7,119.2,45.3z M122,44.1h4.7c0.2-2.7-0.4-4.3-2.2-4.3
					C123.1,39.8,122.2,41.3,122,44.1z"/>
				<path class="st0" d="M130.3,50.5c1.4,0,1.7-0.2,1.7-0.9v-8.4c0-0.7-0.3-1.2-1.7-1.2v-0.3l4.3-0.2V42c0.9-1.6,2.1-2.6,3.3-2.6
					c1.3,0,2,0.8,2,1.8c0,0.9-0.6,1.6-1.5,1.6c-0.9,0-1.5-0.6-1.5-1.5c0-0.2,0.1-0.6,0.1-0.8c-1,0.1-1.6,0.8-2.3,2v7.1
					c0,0.7,0.5,0.9,2.1,0.9v0.3h-6.4V50.5z"/>
				<path class="st0" d="M140.4,47h0.3c1.6,2.7,2.5,3.6,4.3,3.6c1.4,0,2.1-0.9,2.1-1.9c0-1.1-0.7-1.7-3.1-2.4
					c-2.5-0.7-3.5-1.5-3.5-3.3c0-2.1,1.6-3.6,4.1-3.6c1.1,0,2.1,0.4,2.8,0.8l0.6-0.8h0.3V43h-0.3c-1.4-2.3-2.1-3.2-3.6-3.2
					c-1.1,0-2,0.8-2,1.9c0,1.1,1,1.6,2.9,2.1c2.5,0.7,3.7,1.6,3.7,3.5c0,2.1-1.5,3.8-4.1,3.8c-0.9,0-2.5-0.4-3.2-0.9l-0.8,0.9h-0.3
					V47z"/>
				<path class="st0" d="M149.8,50.5c1.4,0,1.8-0.2,1.8-0.9v-8.4c0-0.7-0.4-1.2-1.8-1.2v-0.3l4.4-0.2v10.1c0,0.7,0.3,0.9,1.8,0.9
					v0.3h-6.1V50.5z M151.2,35.8c0-1,0.6-1.7,1.6-1.7c1,0,1.6,0.6,1.6,1.6s-0.6,1.7-1.6,1.7C151.8,37.4,151.2,36.8,151.2,35.8z"/>
				<path class="st0" d="M177.6,42.6c0-5.8,4.3-9.3,9.3-9.3c1.8,0,3.4,0.5,4.6,1.1l1.1-1.3h0.3v6.7h-0.4c-1.7-3.7-3.2-6.1-6-6.1
					c-2.7,0-4.4,3-4.4,8.2c0,5.4,2.3,8.2,5.4,8.2c2.5,0,4.2-1.1,5.5-3.8l0.5,0.2c-1.1,2.4-3.1,4.6-7.3,4.6
					C180.8,51.2,177.6,48,177.6,42.6z"/>
				<path class="st0" d="M194.1,50.5c1.4,0,1.6-0.3,1.6-0.9V35.1c0-0.7-0.2-1.2-1.7-1.2v-0.3l5.5-0.3v8.5c1-1.4,2.7-2.4,4.2-2.4
					c2.2,0,3.1,1.3,3.1,3.6v6.7c0,0.6,0.2,0.8,1.7,0.9v0.3h-6.7v-0.3c0.9,0,1.2-0.3,1.2-0.9V43c0-1.3-0.5-2-1.6-2
					c-0.8,0-1.3,0.5-2,1.2v7.4c0,0.6,0.4,0.8,1.2,0.9v0.3h-6.6V50.5z"/>
				<path class="st0" d="M208.7,50.5c1.4,0,1.8-0.3,1.8-0.9v-8.5c0-0.7-0.4-1.2-1.8-1.2v-0.3l5.5-0.3v10.2c0,0.6,0.2,0.8,1.6,0.9
					v0.3h-7.2V50.5z M210.1,35.7c0-1.3,0.9-2.2,2.2-2.2c1.3,0,2.2,0.8,2.2,2.1c0,1.3-0.9,2.2-2.2,2.2C211,37.8,210.1,37,210.1,35.7z
					"/>
				<path class="st0" d="M215.8,45.3c0-3.8,2.6-6,6.2-6c3.5,0,4.8,1.5,4.8,2.8c0,1.2-0.7,2-1.9,2c-1.4,0-2-0.9-2-1.9
					c0-0.8,0.5-1.4,1-1.6c-0.2-0.4-0.8-0.8-1.7-0.8c-1.5,0-2.4,2.2-2.4,5.4c0,2.5,1,4.9,3.3,4.9c1.2,0,2.7-0.7,3.6-2l0.3,0.2
					c-1.1,1.8-2.7,2.8-5.1,2.8C218,51,215.8,48.9,215.8,45.3z"/>
				<path class="st0" d="M227.7,45.2c0-3.6,2.3-5.9,6.1-5.9c3.8,0,6.1,2.2,6.1,5.8c0,3.7-2.3,5.9-6.1,5.9
					C229.9,51,227.7,48.9,227.7,45.2z M235.9,45.1c0-3.3-0.5-5.4-2.2-5.4c-1.6,0-2,2.1-2,5.4s0.5,5.4,2.2,5.4
					C235.5,50.5,235.9,48.4,235.9,45.1z"/>
			</g>
			<path class="st0" d="M171.6,39.9c1.8,0.2,2.1,0.8,1.3,2.8l-2.2,5.6l-2.9-6.8c-0.4-0.9-0.2-1.4,1.2-1.5v-0.3h-3.5h-2.5h-2.3v-4
				l-2.6,0.9v3.1l-2.3,0.5v0.3h2.3v7.4c0,2.3,1,3.3,2.9,3.3c1.5,0,2.6-0.9,3.4-2.4l-0.3-0.2c-0.6,1.1-1.3,1.6-2.1,1.6
				c-1,0-1.4-0.6-1.4-2v-7.6h3.1c0.6,0,0.8,0.2,0.8,0.2c0.2,0.3,0.4,0.6,0.6,1l4.3,9.4l-0.1,0.3c-1.2,3-2.1,3.6-3.1,3.8
				c0.3-0.3,0.5-0.7,0.5-1.2c0-0.8-0.6-1.5-1.4-1.5c-0.9,0-1.4,0.7-1.4,1.5c0,1,0.7,1.7,1.9,1.7c1.4,0,2.6-0.9,3.9-4l4-9.8
				c0.6-1.3,1.3-2,2.2-2.1v-0.3h-4.4V39.9z"/>
		</g>
	</g>
</g>
</svg>
